<?xml version="1.0" encoding="UTF-8" standalone="no"?>
<svg
   xmlns:dc="http://purl.org/dc/elements/1.1/"
   xmlns:cc="http://creativecommons.org/ns#"
   xmlns:rdf="http://www.w3.org/1999/02/22-rdf-syntax-ns#"
   xmlns:svg="http://www.w3.org/2000/svg"
   xmlns="http://www.w3.org/2000/svg"
   xmlns:sodipodi="http://sodipodi.sourceforge.net/DTD/sodipodi-0.dtd"
   xmlns:inkscape="http://www.inkscape.org/namespaces/inkscape"
   width="210mm"
   height="297mm"
   viewBox="0 0 210 297"
   version="1.1"
   id="svg8"
   inkscape:version="1.0.2 (e86c870879, 2021-01-15, custom)"
   sodipodi:docname="power.svg">
  <defs
     id="defs2" />
  <sodipodi:namedview
     id="base"
     pagecolor="#ffffff"
     bordercolor="#666666"
     borderopacity="1.0"
     inkscape:pageopacity="0.0"
     inkscape:pageshadow="2"
     inkscape:zoom="0.35"
     inkscape:cx="867.98123"
     inkscape:cy="313.76933"
     inkscape:document-units="mm"
     inkscape:current-layer="layer1"
     inkscape:document-rotation="0"
     showgrid="false"
     inkscape:window-width="1366"
     inkscape:window-height="705"
     inkscape:window-x="-8"
     inkscape:window-y="-8"
     inkscape:window-maximized="1" />
  <metadata
     id="metadata5">
    <rdf:RDF>
      <cc:Work
         rdf:about="">
        <dc:format>image/svg+xml</dc:format>
        <dc:type
           rdf:resource="http://purl.org/dc/dcmitype/StillImage" />
        <dc:title></dc:title>
      </cc:Work>
    </rdf:RDF>
  </metadata>
  <g
     inkscape:label="Capa 1"
     inkscape:groupmode="layer"
     id="layer1">
    <path
       style="fill:#262828;stroke:none;stroke-width:0.110644"
       d="m 29.262577,10.667478 -0.7745,0.885151 0.11064,-0.331931 h -0.11064 l -2.48042,4.315113 -3.605,3.983181 0.22129,-0.110644 v 0.110644 l -0.44258,0.331932 0.11065,0.331932 -0.22129,-0.110644 0.11064,0.331931 -0.22129,-0.110643 0.11065,0.331931 -0.22129,-0.110644 -0.11064,0.221288 0.11064,0.221288 h -0.22129 l 0.11065,0.221288 h -0.22129 l -0.11065,0.442576 0.33194,-0.110644 -0.58476,3.761893 -0.18975,2.876742 -0.22129,-0.110644 v 0.110644 c 0.38316,1.663311 -1.09947,3.101022 -2.43417,3.872542 l 0.11065,-0.44258 h -0.11065 l -0.11064,0.88515 2.10223,-1.10644 v 0.55322 h 0.11065 v -0.44257 l 0.77451,-0.77451 h 0.11064 l 0.77451,5.20026 h -0.11065 l -0.11064,-0.22129 -1.54094,2.76599 -1.0665,1.2287 -0.048,2.75459 h 0.11065 c 0,-1.81079 0.39533,-4.04149 2.43416,-4.64704 -0.36545,1.8846 -1.40894,4.42432 -0.88515,6.3067 h 0.11065 c 0.48539,-1.97034 0.60345,-3.48185 2.32363,-4.84498 0.31445,-0.24928 1.03319,-1.00399 1.43826,-0.79786 h 0.11065 l 0.22128,-0.11064 0.22129,-0.44258 h 0.11064 l -0.7745,2.54481 h -0.11065 v -0.22128 h -0.11064 c -0.0788,1.72427 -0.6185,3.09581 -1.43837,4.5364 l 0.77451,0.11064 -0.11065,0.66386 c 0.61717,-0.38902 0.49679,-1.45076 0.65269,-2.10223 0.38482,-1.60821 1.29133,-4.17404 3.10921,-4.64705 l -0.11231,3.98319 0.002,1.32772 -0.44257,0.44258 V 43.9713 h -0.11065 l -1.10644,1.21708 0.33194,0.11065 v 0.11064 h -0.44258 v 0.11064 l 2.10223,0.77451 c -0.1279,-2.15888 0.61485,-4.76289 2.0249,-6.41735 0.29243,-0.3431 1.44224,-1.81987 1.98728,-1.36003 0.31677,0.26731 0.29575,0.98373 0.34952,1.36003 0.23357,1.63587 -0.56594,3.22904 -0.5998,4.86834 h -0.11097 l -0.11064,-0.44258 -0.99579,0.44258 v 0.22128 h -1.88095 -0.11065 v -0.55321 h -0.11064 c -0.72936,1.9242 2.61883,1.92963 3.87254,2.21287 0,-2.22073 -0.33868,-4.19462 1.13841,-6.08541 0.46161,-0.59073 1.3201,-1.74453 2.15734,-1.05687 1.35749,1.11507 0.73191,4.26598 1.01936,5.81456 h -0.11064 l -0.11065,-1.10644 -0.44257,-0.55322 h -0.11065 c -0.88127,0.95685 -2.14151,1.19783 -3.31931,0.66386 -0.63742,2.7089 2.21376,2.8576 4.09382,3.54061 l 0.11065,-0.66387 h 0.11064 l 0.11064,1.99159 h -0.11068 c -0.22549,-1.4564 -3.56163,-1.55875 -4.75769,-1.67835 -3.04868,-0.30483 -5.99535,-0.79896 -8.96216,-1.54437 -1.53629,-0.38593 -3.46304,-0.8981 -4.56406,-2.13134 -1.3087,-1.46603 -0.49203,-5.57136 0.91336,-6.7277 0.48197,-0.39666 1.01527,-0.95209 1.65911,-0.97422 l -0.22129,0.22129 c 1.33581,-0.25647 0.88294,-3.18422 0.66387,-4.09383 h -0.11065 l -2.04791,4.20016 -0.87165,1.22151 -0.95298,3.20856 -0.52511,1.7703 0.30383,1.43837 h 0.55322 c -0.31589,0.91448 0.0625,2.98108 0.44257,3.87254 0.40938,-0.20635 0.51914,-0.43273 0.55322,-0.88515 h 0.11065 l 0.11064,2.54481 -0.44258,-0.55322 -0.55322,0.11064 c 0.0555,0.86247 -0.0908,2.59637 0.88516,2.98739 l -0.11065,0.33193 v 0.44258 l 0.33193,0.11064 v 0.66387 l 0.44258,-0.33194 h 0.11064 l 0.33193,2.7661 h -0.33193 l -0.11064,-0.33193 -0.66386,0.22129 0.22128,-0.33193 c -0.69174,0.19772 -1.29685,1.29896 -1.21708,1.99159 l -0.44258,0.66386 -0.44257,-4.5364 h -0.11065 c 0,5.709 0.52224,11.63543 2.21288,16.70723 0.45132,1.353839 0.99834,2.772189 1.54902,4.093829 0.33038,0.79287 0.946,1.51029 1.21708,2.32352 0.43118,1.29354 0.45497,2.69263 0.88515,3.98318 0.99668,2.99015 2.66243,5.72605 3.87254,8.630231 1.07601,2.58232 1.99956,5.07169 3.42996,7.52378 0.49414,0.8472 1.09859,2.6528 2.10224,2.98739 0.36999,0.12337 0.30349,-0.17305 0.55322,-0.11065 l -0.11065,-0.33193 c 0.74276,-0.55786 1.19219,-2.95474 1.32773,-3.87254 0.62492,0.42156 1.44368,0.78458 1.94844,1.3482 0.67581,0.75492 1.05765,1.95386 1.50885,2.85627 0.99569,1.99148 1.94523,3.95143 3.09283,5.86413 0.69684,1.16176 1.46537,3.1788 2.74408,3.77075 1.00487,0.4647 1.37697,-0.86192 1.62547,-1.55787 0.5707,-1.5977 0.97234,-3.2381 1.44026,-4.86833 0.16485,-0.57435 0.21321,-1.39091 0.919,-1.52379 2.16874,-0.40805 4.45486,-0.19827 6.63698,-0.13432 0.60677,0.0178 1.94833,-0.0725 2.33083,0.46625 0.32949,0.46426 0.39179,1.20558 0.54591,1.74508 0.40153,1.40518 0.71841,2.8358 1.23833,4.20447 0.2256,0.59415 0.47013,1.80017 1.30659,1.77915 1.36236,-0.0343 2.33581,-2.57468 2.92089,-3.54946 0.91348,-1.52257 1.83481,-3.03064 2.57701,-4.64704 0.62381,-1.35849 1.20425,-3.16243 2.17958,-4.30482 0.52467,-0.61441 1.39367,-0.99978 2.05908,-1.44867 l 0.9958,3.54061 h 0.11064 v -0.22129 h 0.11064 c -0.20148,1.44391 1.02678,0.7796 1.50476,-4.4e-4 1.15446,-1.88416 2.18843,-3.74441 3.1081,-5.75304 1.842,-4.02268 3.88891,-8.102011 5.36004,-12.281471 0.50586,-1.43727 0.64616,-2.99602 1.15213,-4.42576 0.70292,-1.98628 1.77285,-3.8482 2.4449,-5.86413 0.96161,-2.884159 1.40263,-5.853289 1.82397,-8.851509 0.35649,-2.53641 0.50885,-5.07347 0.53927,-7.63444 0.009,-0.76045 0.29598,-1.65257 0.14694,-2.40252 -0.15634,-0.78634 -0.68787,-1.83613 -1.03253,-2.57645 l 0.66386,0.77451 c 0.43594,-1.0332 0.30981,-2.67294 0.11065,-3.7619 l 0.55322,1.7703 h 0.11064 l 0.11064,-1.43837 -0.22128,0.11065 0.0918,-3.7619 -0.64506,-4.86833 -0.11064,-0.22129 h -0.22129 l 0.11064,-0.22128 -0.22128,-0.55322 h -0.11065 c -0.20303,0.48119 -0.37453,1.23323 -0.15457,1.74164 0.36778,0.85019 1.46648,2.36845 0.70779,3.34798 -0.11297,-0.83868 -0.0137,-2.42266 -0.66386,-2.98739 l -0.11065,0.66386 h -0.11064 l -0.33027,-7.19185 -0.22295,-2.544811 0.11064,-0.663863 h -0.11064 v 0.221287 h -0.11064 c 0.42166,-2.279265 -1.15369,-3.839123 -2.65546,-5.310908 l 0.33193,0.110644 c -0.9408,-1.495353 -0.79132,-3.425536 -1.76488,-4.978977 -1.02202,-1.630559 -2.88869,-2.674264 -3.86977,-4.315113 -0.78524,-1.313344 -1.34886,-3.544921 -2.69971,-4.427085 -0.93815,-0.612635 -2.36147,-0.201593 -3.39389,-0.187873 -2.40883,0.03209 -4.80084,-0.237 -7.19186,-0.49303 -4.07955,-0.4367115 -8.28524,-1.0764545 -12.39212,-0.9757685 -4.69352,0.114959 -9.37907,0.860809 -14.05178,1.3072585 -1.38006,0.131887 -2.82009,0.220292 -4.20447,0.220292 -1.07214,0 -2.03463,-0.255367 -3.09803,0.0198 m -0.25813,0.03684 0.0737,0.03695 -0.0737,-0.03695 m 1.91779,0.405732 h 0.44257 l -0.99579,0.331931 0.11064,-0.442575 -0.55322,0.331931 0.11065,-0.553219 0.22128,-0.110644 0.66387,0.442576 m 0.22129,-0.331932 -0.11065,0.110644 0.11065,-0.110644 m 40.38503,0.221288 -0.33193,-0.221288 0.33193,0.221288 m -42.92984,0 0.11064,0.110644 -0.11064,-0.110644 m 0.55321,0.331931 -0.33193,0.331932 0.11065,-0.331932 h 0.22128 m 0.33194,0.110644 v 0.110644 l -0.44258,0.221288 0.44258,-0.331932 m -0.44258,0.442576 c -0.27451,1.27495 -1.37077,2.209338 -2.00564,3.319318 -0.95917,1.676698 -1.82906,4.17017 -2.08818,6.085416 h -0.11065 c 0.0813,-1.863908 0.62226,-3.873976 1.38946,-5.533856 0.28137,-0.608763 0.42775,-1.306152 0.93406,-1.768643 l -0.11065,0.774507 1.9916,-2.876742 m 2.76609,0 -0.11064,0.110644 0.11064,-0.110644 m -1.32772,0.110644 -0.11065,0.110644 0.11065,-0.110644 m 27.66098,0 v 0.110644 l -0.55322,0.221288 v -0.110635 l 0.55322,-0.221288 m -28.32485,0.110644 -0.11064,0.110644 0.11064,-0.110644 m 27.4397,0.221288 -0.11064,0.110644 0.11064,-0.110644 m -1.54901,0.331932 -0.11065,0.110644 0.11065,-0.110644 m -7.19186,3.540605 v 0.331932 c -0.77152,0.119274 -1.56572,0.07822 -2.32352,0.28701 -1.78878,0.492919 -3.99093,1.705245 -5.86413,1.067272 -1.39876,-0.476433 -2.25548,-1.748285 -3.42996,-2.561518 -0.96106,-0.665302 -2.21454,-1.381389 -2.7661,-2.444014 2.68178,0 4.18732,1.807148 6.63863,2.425758 0.79177,0.199823 1.53253,-0.146271 2.32353,-0.09217 1.78369,0.12215 3.69263,0.533856 5.42155,0.985726 m 7.41314,-3.208674 -0.11064,0.110644 0.11064,-0.110644 m 11.8389,0.331932 c -0.69296,0.963377 -1.82872,1.496238 -2.76609,2.185882 -1.38604,1.019805 -2.36159,2.655564 -4.31512,2.560189 -2.48152,-0.121155 -4.61905,-1.614073 -7.19185,-1.426753 l -0.11065,-0.110644 v -0.221288 c 1.04946,-0.443571 2.11706,-0.338017 3.20868,-0.447997 0.85572,-0.08608 1.68389,-0.48462 2.54436,-0.523456 1.19341,-0.05388 2.29487,0.05753 3.43041,-0.406506 1.60113,-0.654238 3.36413,-2.493029 5.20026,-1.609427 m -12.83469,0.110644 -0.11065,0.110644 0.11065,-0.110644 m -0.44258,0.221288 -0.11064,0.110644 0.11064,-0.110644 m -28.43549,2.212878 -0.11064,0.110644 0.11064,-0.110644 m 24.6736,0.663864 0.11064,0.885151 h 0.11065 l 0.11064,-0.774507 h 0.11064 v 0.995795 c -0.47267,-0.15634 -0.60522,-0.65291 -0.44257,-1.106439 m 0.88515,0.331932 -0.33193,0.774507 0.33193,-0.774507 m 0.66386,0.221288 v 0.442575 h -0.11064 l 0.11064,-0.442575 m -1.10644,1.438371 v 0.331932 h -0.11064 l 0.11064,-0.331932 m -26.22261,0.553219 v 0.331932 h -0.11064 l 0.11064,-0.331932 m -2.21288,0.221288 -0.11064,0.110644 0.11064,-0.110644 m -0.44257,0.331932 0.11064,0.110644 -0.11064,-0.110644 m 28.87806,0 0.11065,0.995795 h -0.22129 l 0.11064,-0.995795 m -26.4439,0.331932 -0.11064,0.110644 0.11064,-0.110644 m 10.0686,0.701593 c 2.0998,-0.396105 2.97754,2.813011 0.88515,3.260234 -2.12613,0.454414 -3.06683,-2.848639 -0.88515,-3.260234 m 31.75481,-1.11e-4 c 2.05964,-0.397654 2.97245,2.703253 0.91669,3.231577 -2.13687,0.549237 -3.14572,-2.801172 -0.91669,-3.231577 m -41.60212,0.736889 v 0.331932 l -0.22129,-0.331932 h 0.22129 m 26.66519,0.885151 -1.10644,-0.110644 c 0.24419,-0.664085 1.22903,-0.70967 1.10644,0.110644 m -1.54902,-0.553219 v 0.110644 l -1.21708,0.553219 v -0.110644 l 1.21708,-0.553219 m 2.21288,0 1.21709,0.663863 c -0.29476,0.0322 -1.35251,-0.323744 -1.21709,-0.663863 m -30.94346,0.295087 0.0369,0.07369 -0.0369,-0.07369 m -0.11064,0.55322 0.0369,0.07369 -0.0369,-0.07369 m 2.8399,0.03684 c -0.32065,0.968798 -1.46216,2.551338 -2.32352,3.09803 -0.42311,-1.833038 0.79553,-2.461717 2.32352,-3.09803 m 24.34167,0 -0.9958,1.217083 0.55322,-0.774507 h -0.44258 v -0.110644 l 0.88516,-0.331932 m 6.3067,0.442576 -0.77451,-0.331932 0.77451,0.331932 m -33.63576,0 0.11065,0.110644 -0.11065,-0.110644 m 26.22262,0.110644 -0.22129,0.221288 0.22129,-0.221288 m 29.32064,0.110644 v 0.110644 h -0.33193 l 0.33193,-0.110644 m -29.65258,0.110644 -0.11064,0.110643 0.11064,-0.110643 m -26.00132,0.110643 0.11064,0.110644 -0.11064,-0.110644 m 32.86125,0.55322 -0.11065,0.110644 0.11065,-0.110644 m -0.22129,0.110644 -0.11064,0.110644 0.11064,-0.110644 m -32.86125,0.110644 0.11064,0.110644 -0.11064,-0.110644 m 28.10356,0.110644 v 0.331932 h -0.11064 l 0.11064,-0.331932 m -28.10356,0.331932 c -0.44446,0.332153 -0.92089,0.642841 -0.9958,1.217083 h -0.22128 v 0.442576 c 0.31577,0 0.18477,0.186545 0.11064,0.442575 1.15402,-0.06008 1.25968,-1.120491 1.10644,-2.102234 m 31.86546,0.110644 v 0.331931 h -0.11065 l 0.11065,-0.331931 m -2.7661,0.110644 0.99579,0.331931 -0.11064,0.331932 1.32773,0.110644 0.11064,-0.331932 h 0.11064 c -0.11352,0.657336 -0.42376,1.863797 -1.10644,2.102235 l 0.11065,0.442576 c -0.57258,-0.287232 -0.77916,-0.8212 -0.66387,-1.438372 l -0.44257,0.110652 -0.33193,-1.659658 m -0.88515,0.221287 v 0.331932 h -0.11065 l 0.11065,-0.331932 m 1.65965,0.663864 v 0.442576 h 0.11065 l -0.11065,-0.442576 m -1.43837,0.110644 0.11065,0.442576 h -0.11065 V 25.93634 m 0.77451,0.442576 v 0.331931 h -0.11064 l 0.11064,-0.331931 m 2.7661,0.110643 -0.11064,0.110644 0.11064,-0.110644 m -3.31932,0.147489 c 0.0855,0 0.0177,0.0551 -0.0368,0.03695 l 0.0368,-0.03695 m 34.85284,2.61861 h -0.11064 l -0.44258,-0.663864 0.55322,1.659656 v 0.11065 0.11064 l -1.17614,-1.770302 -1.25802,-1.991591 c 1.08563,0.193627 2.23932,1.469352 2.43416,2.544811 m -34.07833,-2.323523 v 0.331932 h -0.11065 l 0.11065,-0.331932 m -0.44258,0.221288 -0.11064,0.110644 0.11064,-0.110644 m -29.32064,0.221288 -0.55322,1.106439 0.88515,-0.553219 -0.11064,-0.55322 h -0.22129 m 30.09515,0 -0.22129,0.331932 0.22129,-0.331932 m -5.5322,0.331932 -0.11064,0.110644 0.11064,-0.110644 m 4.97898,0.110644 0.33193,0.110644 v 0.110643 l -0.44257,-0.110643 0.11064,-0.110644 m 2.32352,0 -0.11064,0.110644 0.11064,-0.110644 m -7.41314,0.110644 -0.11064,0.110643 0.11064,-0.110643 m 6.97057,0 -0.11065,0.110643 0.11065,-0.110643 m -33.52512,0.663863 h 0.11065 l 0.22129,-0.221288 -0.33194,0.221288 m 2.7661,-0.331932 -0.11064,0.110644 0.11064,-0.110644 m 24.23103,0.442576 0.33193,0.442576 h -0.77451 l 0.44258,-0.442576 m 6.41734,0 -0.11064,0.110644 0.11064,-0.110644 m -1.54901,0.110644 -0.22129,0.221288 0.22129,-0.221288 m -31.9761,0.110644 0.11064,0.110644 -0.11064,-0.110644 m 27.66098,0.442576 0.22129,0.553219 h -0.11064 l -0.11065,-0.553219 m -1.10643,0.331931 v 0.110644 l -0.44258,0.442573 0.22129,-0.553217 h 0.22129 m 1.54901,0.331932 -0.11064,0.110644 0.11064,-0.110644 m -23.56716,0.885155 -0.88515,-0.44258 c 0.39854,-0.10589 0.67891,0.10666 0.88515,0.44258 m 21.24364,-0.44258 -0.11065,0.11064 0.11065,-0.11064 m 0.22129,0 -0.11065,0.11064 0.11065,-0.11064 m -0.44258,0.11064 -0.11064,0.11065 0.11064,-0.11065 m -20.83791,0.29509 -0.0369,0.0737 0.0369,-0.0737 m 9.77352,-0.0738 -0.22129,0.22129 0.22129,-0.22129 m 0.33193,0 -0.22129,0.22129 0.22129,-0.22129 m 3.31932,0.11065 v 0.11064 l -6.19606,0.99579 v -0.11064 c 0.86656,-0.45475 1.91137,-0.64904 2.87674,-0.66386 v 0.11064 l -0.22129,0.11064 1.21708,-0.11064 v -0.11064 l -0.22128,-0.11065 2.54481,-0.22128 m 48.24075,0 v 0.33193 h 0.11065 l -0.11065,-0.33193 m -41.0489,0.11064 -0.11064,0.33193 h -0.11065 v -0.33193 h 0.22129 m 40.93826,4.64704 c -1.1247,-0.921 -1.97533,-2.95895 -2.43417,-4.31511 2.37863,-0.35151 2.69451,2.70558 2.43417,4.31511 m -52.00265,-4.31511 -0.11065,0.22129 h 0.22129 l -0.11064,-0.22129 m 15.04757,0 -0.44257,0.33193 v -0.11064 l 0.44257,-0.22129 m 0.33194,0.66386 -0.11065,0.11065 0.11065,-0.11065 m -27.77163,0.22129 0.11064,0.11065 -0.11064,-0.11065 m -0.11065,0.22129 0.11065,0.11064 -0.11065,-0.11064 m -0.11064,0.22129 0.11064,0.11064 -0.11064,-0.11064 m -0.11065,0.22129 0.11065,0.11064 -0.11065,-0.11064 m -0.11064,0.22128 -0.33193,0.77451 h 0.11064 l 0.22129,-0.77451 m 19.47333,0.44258 -0.33193,0.22129 v -0.11065 l 0.33193,-0.11064 m 1.88095,0.55322 -0.77451,0.55322 -0.11064,-0.44258 0.88515,-0.11064 m -22.01814,0.22129 0.11064,0.11064 -0.11064,-0.11064 m 65.7225,0.11064 -0.11065,0.11064 0.11065,-0.11064 m -44.70015,0.22129 v 0.11064 h -0.33194 l 0.33194,-0.11064 m -0.55322,0.11064 -0.11065,0.11065 0.11065,-0.11065 m -20.76422,0.18445 0.037,0.0737 -0.037,-0.0737 m 21.20679,-0.0738 -0.11064,0.11064 0.11064,-0.11064 m 44.92144,0.33193 0.11065,0.11064 -0.11065,-0.11064 m -2.7661,0.7745 c 1.32032,0.81667 1.91547,1.6465 2.32353,3.09803 h -0.11065 l -0.22129,-0.99579 h -0.11064 l -0.66386,0.99579 c -0.43306,-0.74208 -1.39744,-2.22693 -1.21709,-3.09803 m 2.87675,0 0.11064,0.11065 -0.11064,-0.11065 m -62.62447,1.54902 -0.44258,0.77451 0.44258,-0.77451 m -5.42156,0.33193 0.11065,0.11065 -0.11065,-0.11065 m 66.05443,2.21288 -1.54901,-0.33193 0.11064,1.43837 c -0.31688,-0.65933 -0.44611,-1.5977 -0.55277,-2.32352 -0.0299,-0.20337 -0.18345,-0.712 0.0678,-0.83448 0.64848,-0.31611 1.71907,1.62171 1.92332,2.05156 m 0.922,-2.13908 0.037,0.0737 -0.037,-0.0737 m -67.08708,0.25813 0.11065,0.11065 -0.11065,-0.11065 m 57.20292,5.08962 -1.43406,0.55599 -1.09471,-0.0377 -0.34797,0.36689 h -0.11065 c -0.24673,-1.91037 -1.16021,-3.94788 -0.44257,-5.86412 1.62248,0.49657 3.88803,3.16131 3.42996,4.97897 m 9.62602,-4.97897 0.11065,0.11064 -0.11065,-0.11064 m -61.62867,0.11064 -0.11065,0.11064 0.11065,-0.11064 m 58.08807,3.20867 h -0.11065 l -1.43837,0.22129 -0.77451,-3.42996 c 1.13665,0.26709 2.79011,1.52866 2.9698,2.76555 0.0604,0.41568 -0.33348,0.78181 -0.64627,0.44312 m -63.28833,-2.10223 h 0.11064 l 0.55322,-0.55322 v -0.33193 c -0.5229,0.0865 -0.61861,0.38792 -0.66386,0.88515 m 5.08962,-0.77451 -0.11064,0.11065 0.11064,-0.11065 m 55.76455,3.65125 -0.22129,-0.22128 h -0.11065 l -0.66386,0.66386 c -0.80626,-0.50808 -1.00808,0.12669 -1.32773,0.77451 h -0.11064 l -0.11065,-4.75769 c 1.36336,0.27506 2.5166,2.22217 2.54482,3.5406 m -58.19872,-3.42996 0.11065,0.11065 -0.11065,-0.11065 m 50.23235,2.43417 v 1.21708 l -0.99579,0.33193 v -0.44257 l -0.33194,0.22129 -0.11064,-0.33194 -0.22129,0.22129 -0.55322,-0.22129 -0.22128,-0.55322 c -0.46438,0.40551 -0.59272,0.94402 -0.55322,1.54902 -0.26909,-0.2557 -0.12083,-0.64173 -0.11231,-0.9958 0.0176,-0.72903 -0.14749,-2.80261 0.79974,-3.06229 1.20933,-0.33171 1.81666,1.34798 2.29995,2.0665 m -48.01947,-1.88095 -0.11064,0.44258 h -0.11065 l 0.22129,-0.44258 m -4.20447,0.33193 -0.11064,0.22129 h 0.22129 l -0.11065,-0.22129 m 67.16087,0 -0.11064,0.11065 0.11064,-0.11065 m 0.11065,0.44258 v 0.33193 h -0.11065 l 0.11065,-0.33193 m -68.15667,0.11064 0.11064,0.11065 -0.11064,-0.11065 m 66.49701,0.33194 0.22129,3.20867 h 0.11064 l 0.11064,-0.9958 0.55322,0.22129 h 0.11065 c 0.43007,-0.78823 0.55078,-1.53773 0.55322,-2.43416 h 0.11064 c 0.0634,0.80316 0.24054,1.65777 -0.0933,2.43416 -0.75249,1.74984 -3.35915,2.34233 -4.99635,2.75205 -2.60057,0.65103 -5.19473,1.09305 -7.85572,1.42089 -1.921,0.23667 -4.07734,0.30394 -5.86413,1.13797 0.13776,-1.22704 1.99049,-1.34676 2.98739,-1.5873 0.45917,-0.11086 0.90883,-0.33757 1.32773,-0.0724 0.92188,-0.94711 3.15567,-0.91967 4.42576,-1.10644 l -0.33194,0.66387 0.11065,0.11064 c 1.04758,-1.0229 2.71963,-0.55798 3.5406,-1.65966 h 0.11065 l 0.22129,0.77451 0.60068,-0.70779 2.16541,-0.61994 h 0.11065 l 0.55322,-0.33193 c 1.5645,0.17404 0.85616,-2.34864 1.21708,-3.20867 m -66.60765,0.22128 -0.11064,0.88516 h 0.11064 V 40.9839 m -0.11064,0.9958 -0.11065,0.44258 h 0.11065 V 41.9797 m 62.29253,0.11064 -0.11064,0.11065 0.11064,-0.11065 m -30.31644,0.44258 v 0.22129 h -0.22128 l 0.22128,-0.22129 m 6.08542,0 v 0.11064 l -0.44257,0.11065 0.44257,-0.22129 m 31.82861,0.0738 -0.037,0.0737 0.037,-0.0737 m -67.08718,0.22129 0.037,0.0737 -0.037,-0.0737 m 67.23467,0.14748 V 43.75 h -0.11056 l 0.11065,-0.77451 m -70.25891,0.11065 0.11065,0.11064 -0.11065,-0.11064 m 69.81633,0.44257 -0.11064,0.11065 0.11064,-0.11065 M 81.265237,43.75 v 0.44258 h -0.11065 L 81.265237,43.75 m 4.6102,0.18445 -0.037,0.0737 0.037,-0.0737 m -0.40573,0.36877 0.22128,1.21708 -0.44257,0.22129 h -0.11065 l 0.33194,-1.43837 m 1.03264,0.62702 0.0369,0.0737 -0.0369,-0.0737 m -0.0368,0.25813 0.11064,0.11065 -0.11064,-0.11065 m -50.343,0.11065 -0.11064,0.11064 0.11064,-0.11064 m -7.52378,0.33193 -0.11065,0.11064 0.11065,-0.11064 m 0.18444,0.0738 -0.037,0.0737 0.037,-0.0737 m 57.01847,-0.0738 0.11065,0.55322 h -0.11065 v -0.55322 m -56.53905,0.11064 -0.11065,0.11065 0.11065,-0.11065 m 0.33193,0.11065 -0.11064,0.11064 0.11064,-0.11064 m 55.54326,0 -0.11065,1.10644 h -0.11064 l 0.22129,-1.10644 m -68.93118,0.88515 -0.11064,0.77451 h 0.11064 v -0.7745 m 3.09803,0.33193 -0.11064,0.11064 0.11064,-0.11064 m 0,0.44258 -0.44257,0.7745 h -0.11065 l 0.22129,-0.7745 h 0.33193 m 65.61186,1.10643 0.22129,0.55322 h -0.11065 l -0.11064,-0.55322 m -0.88515,0.33194 -0.11064,0.55322 h -0.11065 v -0.55322 h 0.22128 m 0.9958,0.99579 0.33193,0.88515 -0.44257,-0.11064 -0.11065,0.33193 h -0.11064 l 0.33193,-1.10644 m 1.21708,0.22129 0.11065,0.11064 -0.11065,-0.11064 m -0.81135,0.84831 -0.037,0.0737 0.037,-0.0737 m 0.70071,0.0368 0.11064,0.11064 -0.11064,-0.11064 m -0.55322,0.22128 0.11064,1.10644 h 0.22129 l -0.55322,5.75349 h -0.11064 l -1.60821,-3.18555 0.8337,-0.90828 h 0.11064 l 0.22129,2.21288 h 0.11065 l 0.43261,-2.21288 0.23125,-2.7661 m -68.82053,0.22129 -0.22129,0.88515 h 0.11064 l 0.11065,-0.88515 m 46.35981,3.09803 c -1.02091,-0.46769 -1.68655,-1.5957 -2.7661,-1.95397 -1.1008,-0.36523 -2.29066,-0.27805 -3.42996,-0.38836 -3.42819,-0.33171 -6.85638,-0.4387 -10.28989,-0.11064 -1.52025,0.14527 -3.17481,-4.5e-4 -4.64704,0.45563 -1.19872,0.37121 -1.81479,1.77882 -2.98739,2.10799 0.91469,-2.03652 3.29885,-2.38261 5.20027,-2.56362 4.472,-0.42554 9.14007,-0.63167 13.6092,-0.0449 1.80106,0.23655 4.53319,0.3971 5.31091,2.49789 m 22.49756,-2.6923 0.037,0.0737 -0.037,-0.0737 m -27.25525,0.70071 v 0.11065 l -12.06019,-0.12946 -3.98318,0.4033 -1.54902,1.05388 c 1.09516,-1.54171 2.85539,-1.33945 4.53641,-1.579 4.40385,-0.62746 8.67691,0.12857 13.05598,0.14063 m 1.21708,0.33193 -1.10644,-0.11064 c 0.35893,-0.15059 0.8368,-0.19794 1.10644,0.11064 m -40.27439,-0.11064 -0.11064,0.11064 0.11064,-0.11064 m 41.15954,0.22129 v 0.11064 l -0.7745,-0.22129 0.7745,0.11065 m -43.92564,0 v 0.44257 h 0.11064 l -0.11064,-0.44257 m 0.11064,0.55322 0.11065,0.11064 -0.11065,-0.11064 m 67.93538,0.22129 -0.11064,0.11064 0.11064,-0.11064 m -43.92564,0.22128 -1.43837,0.9958 v -0.11064 l 1.43837,-0.88516 m 22.23943,0.88516 -0.33193,-0.11065 0.33193,0.11065 m 19.91591,0.88515 0.11064,0.22128 h -0.22128 l 0.11064,-0.22128 m -64.06284,0.66386 c 0.2952,0.86457 1.28668,4.43915 2.43417,3.54061 0.32252,0.61075 0.12071,0.9699 -0.55322,1.10644 -0.0443,1.19229 -0.63787,4.16895 -1.77031,4.75768 -0.69672,-2.47853 -1.79807,-7.13996 -0.11064,-9.40473 m -0.66386,0.55322 -0.44258,0.55322 0.22129,-0.22129 -0.11065,-0.22129 0.11065,-0.11064 h 0.22129 m 65.94378,0 -0.22128,0.33193 0.22128,-0.33193 m 0,0.44258 0.44258,1.99159 c -0.13488,2.01283 -0.17504,4.52113 -0.88515,6.41734 -1.27805,-1.05963 -1.73645,-3.8129 -1.21709,-5.3109 h 0.11065 l 0.22129,1.99159 1.32772,-5.08962 m -0.66386,0.33193 -0.11064,0.11064 0.11064,-0.11064 m -0.11064,0.22129 -0.11065,0.11064 0.11065,-0.11064 m 0.7745,0 0.11065,0.11064 -0.11065,-0.11064 m -0.88515,0.22128 -0.11064,0.11065 0.11064,-0.11065 m -0.11064,0.22129 -0.44258,1.88095 h -0.11064 l 0.55322,-1.88095 m 1.14328,0.0738 0.037,0.0737 -0.037,-0.0737 m 0.25825,0.66386 -0.037,0.0737 0.037,-0.0737 m -3.20868,1.32773 -0.037,0.0737 0.037,-0.0737 m -59.48959,0.36878 0.44257,1.10644 c -1.12425,0.63764 -0.0802,2.51372 0.66387,3.09803 l 0.33193,0.55322 -0.40562,2.10223 -0.81147,4.868329 h -0.11064 c -0.98042,-2.740649 -1.06771,-5.316109 -0.99746,-8.187649 0.0337,-1.37796 -0.25791,-2.54956 0.88682,-3.5406 m 59.08386,0.22129 c 1.15512,1.03452 0.77451,3.41945 0.77451,4.86833 h -0.11065 c 0,-0.87165 0.14196,-2.01317 -0.55322,-2.65546 0.12603,-0.60455 0.15867,-1.69296 -0.75105,-0.85561 -0.62657,0.57668 -0.72283,1.64108 -1.57247,1.96205 0.48606,-1.02733 1.35594,-2.58475 2.21288,-3.31931 m 1.99159,1.54901 0.11064,0.11064 -0.11064,-0.11064 m -62.29254,0.66386 0.11065,0.66387 h -0.11065 v -0.66387 m 59.96902,0.55322 -0.11065,0.33194 h -0.11064 l 0.22129,-0.33194 m -0.22129,0.44258 -0.22129,0.55322 h -0.11064 l 0.33193,-0.55322 m -1.7703,0.33193 0.44257,1.43837 -1.32772,0.005 -1.9916,1.1018 v -0.11065 l 2.87675,-2.43416 m -54.32618,0.11064 0.77451,0.88515 v 0.11065 l -0.9958,1.21708 c 3.2141,1.59891 2.07093,4.285789 1.65966,7.081209 h 0.11065 l 0.44257,-1.10644 h 0.11065 l -0.55322,2.7661 -0.33193,-0.22129 0.22128,0.77451 h -0.11064 l -0.11064,-0.33193 -0.11065,0.44257 c -0.90407,-0.30659 -1.16862,-1.84598 -1.43837,-2.65545 -0.85561,-2.56716 -1.50188,-6.782469 0.33193,-8.962159 m -4.64704,0.88515 -0.11065,0.11065 0.11065,-0.11065 m -0.11065,0.22129 -0.44257,0.33193 0.44257,-0.33193 m 60.30095,0.22129 0.88515,4.20447 c 0.77174,-0.88349 0.57059,-2.55256 0.77451,-3.65125 h 0.11064 l -0.66386,5.642839 h -0.11064 c -0.25382,-0.67776 -0.25349,-1.39982 -0.40585,-2.102189 -0.25724,-1.18577 -1.09482,-2.89057 -0.58995,-4.09383 m -0.77451,0.55322 h 0.11065 c 0.26189,0.70293 0.32396,1.6018 0.11064,2.32353 h -0.11064 l -0.11065,-2.32353 m -0.44257,0.22129 -0.22129,0.22129 0.22129,-0.22129 m -0.33193,0.22129 -0.22129,0.22129 0.22129,-0.22129 m -2.7661,0.33193 c -0.0227,0.93395 -0.49392,0.99524 -1.32773,0.9958 l 1.32773,-0.9958 m -47.24497,0.88515 -0.7745,0.55322 v 0.11065 l 0.11064,0.33193 2.87674,1.549009 c -0.37231,1.09416 -0.19716,2.29996 -0.42133,3.42997 -0.1164,0.58685 -0.22704,1.19418 -0.38581,1.7703 -0.12857,0.46669 -0.32917,1.85428 -0.79819,2.08276 -0.71199,0.34676 -1.33149,-1.53341 -1.47123,-1.97212 -0.55411,-1.73976 -0.68611,-3.82905 -0.5842,-5.642839 0.0434,-0.77119 -0.46869,-1.98495 0.45209,-2.32352 l 0.11064,-0.55322 0.88515,0.66386 m -5.3109,0.9958 v 0.55322 h -0.11065 l 0.11065,-0.55322 m 53.55166,0 0.55322,3.429959 h 0.22129 l 1.65966,-2.544809 h 0.11064 c -2.2e-4,2.242749 -0.82706,4.083649 -1.43837,6.196059 h -0.22129 l -0.45862,-2.43417 -0.57844,-2.76178 0.15191,-1.885259 m -0.99579,0.22129 h 0.11064 0.11064 v 0.88515 h -0.11064 l -0.11064,-0.88515 m 3.76189,0.11064 v 0.66386 h -0.11064 l 0.11064,-0.66386 m -7.85572,0.33193 c -0.35151,0.730139 -0.78524,0.845649 -1.54901,0.663869 V 70.52622 l 1.54901,-0.55322 m -38.2828,0.885149 -1.10644,0.66387 0.33193,0.44257 -0.77451,0.66387 2.98739,0.0563 1.99159,-0.83083 c -0.85572,2.18909 -1.61396,4.41879 -2.03961,6.74762 -0.0799,0.43671 -0.10035,2.13875 -0.64671,2.22328 -0.71078,0.11009 -1.55322,-1.37918 -1.80837,-1.88969 -0.93251,-1.86479 -1.62967,-5.4512 -1.23357,-7.51936 0.20868,-1.089289 1.59704,-1.123479 2.2983,-0.55764 m 40.0531,-0.442579 c -0.73733,1.978089 -0.18499,3.583419 0.33194,5.532199 h 0.66386 l 0.99579,-3.09803 h 0.11065 c 0,1.65069 -0.0356,4.22173 -1.65966,5.20026 -0.4335,-1.87298 -1.21631,-3.56373 -1.21708,-5.5322 -3.4e-4,-0.82684 -0.0769,-1.69218 0.7745,-2.102229 m 2.54481,0.221289 v 0.44257 h -0.11064 l 0.11064,-0.44257 m -0.0368,0.73766 -0.0369,0.0737 0.0369,-0.0737 m -36.62314,0.44258 -0.037,0.0737 0.037,-0.0737 m 31.23844,0.14749 c -0.49724,0.52279 -1.40341,0.38083 -1.81246,1.00232 -0.20823,0.31622 0.10732,2.38792 0.55222,2.3472 0.86966,-0.0794 1.34709,-1.42454 2.03474,-1.80051 -0.0637,1.69396 -0.12491,3.50431 -0.83149,5.08962 -0.37497,0.84156 -1.01195,1.54282 -1.49203,2.32352 l -0.62669,-2.10223 -1.10655,-4.50476 -0.34709,-1.98639 0.97389,-0.12458 2.65546,-0.24419 m -34.29963,0 0.22129,0.22128 v -0.22128 h -0.22129 m 1.21709,0.22128 -0.11065,0.11065 0.11065,-0.11065 m -0.11065,0.22129 -0.11064,0.11064 0.11064,-0.11064 m 38.61474,0 -0.11065,0.11064 0.11065,-0.11064 m -37.06572,0.33193 -0.11065,0.11065 0.11065,-0.11065 m -0.11065,0.22129 0.11065,0.55322 1.32773,0.88515 c 0.34642,-0.65401 0.93018,-0.41182 1.54901,-0.33193 v -0.44258 c 0.85572,0.92056 1.59792,2.00476 2.65546,2.71432 1.05554,0.70812 2.43582,1.01317 3.65125,1.32142 2.05322,0.52069 3.62458,0.9917 5.75348,0.44778 1.6414,-0.41946 3.65391,-0.85329 5.08962,-1.77816 0.70182,-0.45209 1.10699,-1.18544 1.77075,-1.6611 0.49292,-0.35318 0.84985,-0.0926 1.21664,0.28347 l 0.66386,-0.44258 v 0.33194 l -0.22129,-0.11065 c 0.66276,0.59903 1.30295,0.5083 2.10224,0.66386 l -0.22129,0.22129 c 0.70867,0.14694 0.95596,-0.2807 1.21708,-0.88515 h 0.11064 c -0.18444,2.25858 -1.32717,4.70923 -2.0281,6.85992 -1.42731,4.37896 -2.85517,8.778161 -4.56627,13.055991 -0.56407,1.41015 -1.17538,2.79829 -1.74785,4.20446 -0.1944,0.47765 -0.35826,1.34068 -0.78579,1.66099 -0.54382,0.40728 -1.51914,0.17858 -2.15767,0.33061 l 0.55322,-0.33194 c -0.29619,-0.76753 -0.68289,-1.47986 -1.05233,-2.21287 -0.42598,-0.84532 -0.83979,-1.71333 -1.29044,-2.54482 -0.13842,-0.25547 -0.39412,-0.7516 -0.73921,-0.7516 -0.56938,0 -1.1382,1.54658 -1.3752,1.96869 -0.4501,0.80172 -0.92908,1.60168 -1.32042,2.43416 -0.18168,0.38626 -0.26831,0.90928 -0.66464,1.13698 -0.5416,0.31135 -1.16464,0.105 -1.74541,0.0801 -0.0126,-0.8087 -0.53729,-1.60677 -0.87486,-2.32352 -0.54868,-1.16475 -1.05499,-2.33592 -1.51372,-3.54061 -1.71211,-4.49624 -3.49513,-8.995681 -4.88161,-13.609201 -0.4667,-1.55289 -0.96006,-3.10821 -1.47068,-4.64705 -0.1289,-0.38847 -0.62149,-1.36014 0,-1.43837 l 0.66386,-2.10223 h 0.22129 m 32.97189,0 v 0.99579 h -0.11064 l 0.11064,-0.99579 m 4.09383,0.11064 -0.11064,0.11065 0.11064,-0.11065 m 0.40573,0.40573 -0.037,0.0737 0.037,-0.0737 m -34.70535,0.14749 -0.11064,0.11065 0.11064,-0.11065 m -15.71144,0.44258 0.11064,0.11064 -0.11064,-0.11064 m 45.91723,0 -0.11064,0.66386 h -0.11064 l 0.22128,-0.66386 m 3.31932,0 -0.11064,0.11064 0.11064,-0.11064 m 1.10644,0.11064 v 0.66387 h -0.11064 l 0.11064,-0.66387 m -50.34299,0.11065 v 1.10643 h 0.11064 l 0.11065,-1.10643 h -0.22129 m 49.3472,0.44257 0.11064,0.11065 -0.11064,-0.11065 m -3.54061,0.11065 -0.11064,0.55321 h -0.11065 l 0.22129,-0.55321 m 3.42996,0.11064 0.11065,0.11064 -0.11065,-0.11064 m 0.9958,0 v 0.33193 h -0.11065 l 0.11065,-0.33193 m -0.11065,0.66386 -0.11064,0.11065 0.11064,-0.11065 m -4.5364,0.33193 -0.11064,0.11065 0.11064,-0.11065 m -40.93825,0.11065 -0.11065,0.66386 h -0.11064 l 0.22129,-0.66386 m 45.32717,0.0738 -0.037,0.0737 0.037,-0.0737 m -4.38892,0.0368 -0.11064,0.88515 h -0.11064 l 0.22128,-0.88514 m -41.19639,0.73767 -0.037,0.0737 0.037,-0.0737 m 45.40086,0.0368 -0.11064,0.11064 0.11064,-0.11064 m -4.4626,0.40573 -0.037,0.0737 0.037,-0.0737 m 4.35196,-0.0738 -0.11065,0.11064 0.11065,-0.11064 m -0.14749,0.29508 -0.0369,0.0737 0.0369,-0.0737 m -0.18444,0.47943 -0.66387,1.10643 0.11065,0.11065 0.55322,-0.22129 c 0.22283,0.97278 -0.38405,1.90673 -0.77451,2.7661 l 1.10644,-0.22129 v 0.11064 c -1.50985,1.03021 -2.54371,2.25526 -3.54061,3.7619 h -0.11064 c 0.49469,-1.36358 0.94479,-2.58055 1.6071,-3.87254 0.34875,-0.68035 0.47998,-1.46714 1.38029,-1.32773 l -0.44258,-1.10644 v -0.11064 l 0.77451,-0.99579 m -4.31512,0.44257 -0.11064,0.11064 0.11064,-0.11064 m 4.20447,1.10644 0.11065,0.11064 -0.11065,-0.11064 m 3.20868,0.33193 -0.22129,0.55322 h -0.11064 l -0.11065,-0.33193 0.44258,-0.22129 m -0.81135,0.51638 -0.037,0.0737 0.037,-0.0737 m -7.92952,0.51626 c 0.0855,0 0.0177,0.0551 -0.0368,0.037 l 0.0368,-0.037 m 6.97056,-0.0368 -0.33193,0.33193 0.33193,-0.33193 m -0.55322,0.33193 -0.22128,0.22129 0.22128,-0.22129 m -36.62314,1.54902 c 0.14904,1.04514 0.78391,2.08741 1.11064,3.09803 0.88239,2.729361 1.895,5.407831 2.9438,8.077001 0.46481,1.18268 1.6975,2.94213 1.5884,4.20447 h -0.11064 v -0.44257 h -0.11065 l -0.55322,0.55322 0.40662,2.65545 -0.73689,3.31943 0.41481,2.03795 -0.30582,1.72383 c -0.41669,-0.26997 -0.37896,-0.8586 -0.42377,-1.32773 -0.11286,-1.18101 -0.34499,-2.27749 -0.64174,-3.42996 -1.14339,-4.44113 -2.9304,-8.70956 -4.06129,-13.16662 -0.30958,-1.22018 -2.20226,-4.677251 -0.29476,-5.200271 l 0.66387,0.55322 c -0.016,-0.79863 -0.37852,-1.96304 0.11064,-2.65545 m 24.56296,0 c 0.19982,1.07701 -0.0997,2.13354 -0.20248,3.20867 -0.23313,2.437381 -0.52722,5.004091 -1.44944,7.302501 -1.14063,2.84277 -2.83569,5.36656 -3.21376,8.51958 -0.0749,0.62436 0.54846,1.27108 0.55056,1.99159 l 0.33193,-0.22129 c -0.11783,0.92775 -0.3971,1.82707 -0.43826,2.7661 -0.0272,0.62403 0.14273,1.30117 -0.33624,1.7703 -0.23866,-0.86302 -0.73634,-1.51582 -0.85351,-2.43416 -0.10533,-0.82485 0.14981,-1.85428 -0.0513,-2.62381 -0.19994,-0.76488 -1.02279,-1.24707 -1.04315,-2.13388 -0.0346,-1.5094 0.89522,-3.07336 1.4584,-4.42576 0.94235,-2.263 1.76421,-4.57335 2.63708,-6.85992 0.78436,-2.05488 1.16519,-5.179021 2.6102,-6.859921 m 8.96216,2.43416 -1.88094,3.761901 h -0.11065 c 0.42642,-1.27141 0.96714,-2.851961 1.99159,-3.761901 m -1.14328,0.51638 -0.0369,0.0737 0.0369,-0.0737 m -0.84831,3.356161 -1.43837,3.20868 h -0.11064 c 0.33381,-0.9948 0.79851,-2.46604 1.54901,-3.20868 m 3.50376,0.18445 -0.037,0.0737 0.037,-0.0737 m -0.51637,0.25813 -0.44258,0.99579 h -0.11064 l 0.33193,-0.99579 h 0.22129 m 0,0.66386 -0.11065,0.11065 0.11065,-0.11065 m 0.33193,2.98739 -0.11064,0.11064 0.11064,-0.11064 m -0.11064,0.33193 -0.11065,0.11064 0.11065,-0.11064 m 0,0.22128 -0.11065,0.33194 h -0.11064 l 0.22129,-0.33194 m -0.25814,0.51638 -0.037,0.0737 0.037,-0.0737 m -0.0738,0.25813 c -0.14638,0.97677 -0.7662,2.05499 -1.54901,2.65546 l 1.54901,-2.65546 m -22.01814,2.43417 v 0.33193 h -0.11064 l 0.11064,-0.33193 m 0,0.44257 c 0,0.92067 -0.29542,3.2588 0.88515,3.42997 v 0.11064 c -0.57656,0.17039 -1.6986,0.30903 -2.10223,-0.22129 1.60931,-0.0884 0.79121,-2.30449 1.21708,-3.31932 m -6.52799,0.77451 -0.11065,0.11065 0.11065,-0.11065 m -12.94534,0.22129 -0.11065,0.11064 0.11065,-0.11064 m 13.05598,0.11064 -0.11064,0.11065 0.11064,-0.11065 m -13.05598,0.11065 0.11064,0.22128 h -0.22129 l 0.11065,-0.22128 m 0.11064,0.33193 v 0.33193 h -0.11064 l 0.11064,-0.33193 m 14.12558,1.73346 -0.037,0.0737 0.037,-0.0737 m 2.91359,-0.037 c 0.0855,0 0.0177,0.0551 -0.0368,0.037 l 0.0368,-0.037 m 0.88515,0.0738 v 0.11065 h -0.33193 l 0.33193,-0.11065 m 8.96216,7.52379 0.11064,1.32773 c -0.2817,-0.37177 -0.29,-0.90065 -0.11064,-1.32773 m -15.37951,0.11064 v 0.88515 h -0.11064 z"
       id="path38" />
  </g>
</svg>
